<?xml version="1.0" standalone="no"?>
<!DOCTYPE svg PUBLIC "-//W3C//DTD SVG 20010904//EN"
 "http://www.w3.org/TR/2001/REC-SVG-20010904/DTD/svg10.dtd">
<svg version="1.0" xmlns="http://www.w3.org/2000/svg"
 width="256.000000pt" height="256.000000pt" viewBox="0 0 256.000000 256.000000"
 preserveAspectRatio="xMidYMid meet">

<g transform="translate(0.000000,256.000000) scale(0.100000,-0.100000)"
fill="#000000" stroke="none">
<path d="M143 2440 c-67 -40 -63 35 -63 -1170 0 -1205 -4 -1130 63 -1170 31
-19 59 -20 1135 -20 1218 0 1142 -4 1182 63 19 31 20 59 20 1127 0 1068 -1
1096 -20 1127 -40 67 36 63 -1182 63 -1076 0 -1104 -1 -1135 -20z m2262 -55
l25 -24 0 -1091 0 -1091 -25 -24 -24 -25 -1101 0 -1101 0 -24 25 -25 24 0
1091 0 1091 25 24 24 25 1101 0 1101 0 24 -25z"/>
<path d="M910 1770 c-163 -21 -263 -136 -247 -285 12 -114 79 -187 244 -266
183 -87 229 -142 202 -241 -34 -128 -199 -165 -365 -83 -100 49 -106 48 -102
-22 l3 -58 70 -35 c68 -34 72 -35 195 -35 140 0 182 13 254 75 60 53 89 121
90 210 0 134 -52 195 -255 297 -155 77 -191 111 -196 185 -8 104 55 154 182
146 53 -4 86 -13 134 -37 72 -37 81 -34 81 35 0 27 -6 46 -17 56 -26 23 -86
46 -140 53 -26 4 -55 8 -63 9 -8 2 -40 0 -70 -4z"/>
<path d="M1467 1745 c-16 -15 -17 -58 -15 -503 l3 -487 60 0 60 0 3 188 2 187
63 0 c90 0 192 17 246 41 100 43 170 148 179 269 9 131 -41 224 -152 280 l-69
35 -182 4 c-160 3 -183 1 -198 -14z m376 -124 c100 -61 115 -217 31 -311 -45
-49 -84 -62 -198 -64 l-91 -1 -3 204 -2 204 113 -5 c95 -3 119 -8 150 -27z"/>
</g>
</svg>
